<?xml version="1.0" encoding="utf-8"?>
<!-- Generator: Adobe Illustrator 18.1.0, SVG Export Plug-In . SVG Version: 6.00 Build 0)  -->
<!DOCTYPE svg PUBLIC "-//W3C//DTD SVG 1.1//EN" "http://www.w3.org/Graphics/SVG/1.1/DTD/svg11.dtd">
<svg version="1.1" id="Layer_1" xmlns="http://www.w3.org/2000/svg" xmlns:xlink="http://www.w3.org/1999/xlink" x="0px" y="0px"
	 viewBox="0 0 143.7 144" enable-background="new 0 0 143.7 144" xml:space="preserve">
<g>
	<path fill="#FFFFFF" d="M71.9,143.5c-39.4,0-71.5-32.1-71.5-71.5c0-39.4,32.1-71.5,71.5-71.5s71.5,32.1,71.5,71.5
		C143.4,111.4,111.3,143.5,71.9,143.5z M71.9,4.6C34.7,4.6,4.4,34.8,4.4,72c0,37.2,30.2,67.4,67.4,67.4c37.2,0,67.4-30.2,67.4-67.4
		C139.3,34.8,109,4.6,71.9,4.6z"/>
	<path fill="#FFFFFF" d="M69,54.6c1.3,1.8,2,4,2,6.6c0,2.6-0.7,4.7-2,6.3c-0.7,0.9-1.8,1.7-3.3,2.4c2.2,0.8,3.8,2.1,5,3.8
		c1.1,1.7,1.7,3.8,1.7,6.3c0,2.5-0.6,4.8-1.9,6.8c-0.8,1.3-1.8,2.5-3,3.4c-1.4,1.1-3,1.8-4.8,2.2c-1.9,0.4-3.9,0.6-6.1,0.6H37.1V50
		h20.7C63.1,50.1,66.8,51.6,69,54.6z M45.7,57.5v9.5h10.4c1.9,0,3.4-0.4,4.5-1.1c1.2-0.7,1.7-2,1.7-3.8c0-2-0.8-3.3-2.3-4
		c-1.3-0.4-3-0.7-5.1-0.7H45.7z M45.7,74v11.4h10.4c1.9,0,3.3-0.3,4.3-0.8c1.9-0.9,2.8-2.7,2.8-5.4c0-2.2-0.9-3.8-2.7-4.6
		c-1-0.5-2.5-0.7-4.3-0.7H45.7z M98.3,61.8c2.2,1,4,2.6,5.5,4.7c1.3,1.9,2.2,4.1,2.5,6.6c0.2,1.5,0.3,3.6,0.3,6.3H83.5
		c0.1,3.2,1.2,5.4,3.3,6.7c1.3,0.8,2.8,1.2,4.6,1.2c1.9,0,3.4-0.5,4.6-1.5c0.7-0.5,1.2-1.3,1.7-2.2h8.5c-0.2,1.9-1.3,3.8-3.1,5.7
		c-2.8,3.1-6.8,4.6-11.9,4.6c-4.2,0-8-1.3-11.2-3.9c-3.2-2.6-4.8-6.8-4.8-12.7c0-5.5,1.5-9.7,4.4-12.7c2.9-2.9,6.7-4.4,11.4-4.4
		C93.6,60.3,96.1,60.8,98.3,61.8z M85.9,69c-1.2,1.2-1.9,2.8-2.2,4.9H98c-0.2-2.2-0.9-3.9-2.2-5c-1.3-1.1-3-1.7-4.9-1.7
		C88.7,67.2,87,67.8,85.9,69z M99.9,52H81.5v5.3h18.4V52z"/>
</g>
</svg>
