<?xml version="1.0" encoding="utf-8"?>
<!-- Generator: Adobe Illustrator 18.1.0, SVG Export Plug-In . SVG Version: 6.00 Build 0)  -->
<!DOCTYPE svg PUBLIC "-//W3C//DTD SVG 1.1//EN" "http://www.w3.org/Graphics/SVG/1.1/DTD/svg11.dtd">
<svg version="1.1" id="Layer_1" xmlns="http://www.w3.org/2000/svg" xmlns:xlink="http://www.w3.org/1999/xlink" x="0px" y="0px"
	 viewBox="0 0 143.7 144" enable-background="new 0 0 143.7 144" xml:space="preserve">
<g>
	<path fill="#FFFFFF" d="M71.9,143c-39.2,0-71-31.9-71-71c0-39.2,31.9-71,71-71c39.2,0,71,31.9,71,71C142.9,111.2,111,143,71.9,143z
		 M71.9,5c-36.9,0-67,30-67,67c0,36.9,30,67,67,67c36.9,0,67-30,67-67C138.8,35.1,108.8,5,71.9,5z"/>
	<path fill="#FFFFFF" d="M55.2,60.3h7.1v-6.9c0-3.1,0.1-7.8,2.3-10.7c2.3-3.1,5.5-5.2,11.1-5.2c9,0,12.8,1.3,12.8,1.3l-1.8,10.6
		c0,0-3-0.9-5.7-0.9c-2.8,0-5.3,1-5.3,3.8v8.1h11.4l-0.8,10.3H75.7v35.9H62.4V70.6h-7.1V60.3z"/>
</g>
</svg>
