<?xml version="1.0" encoding="utf-8"?>
<!-- Generator: Adobe Illustrator 18.1.0, SVG Export Plug-In . SVG Version: 6.00 Build 0)  -->
<!DOCTYPE svg PUBLIC "-//W3C//DTD SVG 1.1//EN" "http://www.w3.org/Graphics/SVG/1.1/DTD/svg11.dtd">
<svg version="1.1" id="Layer_1" xmlns="http://www.w3.org/2000/svg" xmlns:xlink="http://www.w3.org/1999/xlink" x="0px" y="0px"
	 viewBox="0 0 143.7 144" enable-background="new 0 0 143.7 144" xml:space="preserve">
<g>
	<path fill="#FFFFFF" d="M71.9,142.8c-39,0-70.8-31.7-70.8-70.8c0-39,31.7-70.8,70.8-70.8S142.6,33,142.6,72
		C142.6,111,110.9,142.8,71.9,142.8z M71.9,5.3C35.1,5.3,5.1,35.2,5.1,72c0,36.8,29.9,66.7,66.7,66.7c36.8,0,66.7-29.9,66.7-66.7
		C138.6,35.2,108.6,5.3,71.9,5.3z"/>
	<path fill="#FFFFFF" d="M52.6,100.7H39.2V57.9h13.4V100.7z M45.6,52.5L45.6,52.5c-4.9,0-8.1-3.3-8.1-7.4c0-4.2,3.2-7.4,8.2-7.4
		c4.9,0,8,3.2,8.1,7.4C53.8,49.2,50.6,52.5,45.6,52.5z M106.2,100.7H91V78.6c0-5.8-2.4-9.8-7.6-9.8c-4,0-6.2,2.7-7.3,5.3
		c-0.4,0.9-0.3,2.2-0.3,3.5v23.2H60.8c0,0,0.2-39.3,0-42.9h15.1v6.7c0.9-2.9,5.7-7.1,13.4-7.1c9.5,0,17,6.2,17,19.4V100.7z"/>
</g>
</svg>
