<?xml version="1.0" encoding="utf-8"?>
<!-- Generator: Adobe Illustrator 18.1.0, SVG Export Plug-In . SVG Version: 6.00 Build 0)  -->
<!DOCTYPE svg PUBLIC "-//W3C//DTD SVG 1.1//EN" "http://www.w3.org/Graphics/SVG/1.1/DTD/svg11.dtd">
<svg version="1.1" id="Layer_1" xmlns="http://www.w3.org/2000/svg" xmlns:xlink="http://www.w3.org/1999/xlink" x="0px" y="0px"
	 viewBox="0 0 143.7 144" enable-background="new 0 0 143.7 144" xml:space="preserve">
<path fill="#FFFFFF" stroke="#FFFFFF" stroke-width="2.0423" stroke-miterlimit="10" d="M71.9,2.4C33.4,2.4,2.2,33.6,2.2,72
	c0,38.4,31.2,69.6,69.6,69.6c38.4,0,69.6-31.2,69.6-69.6C141.5,33.6,110.3,2.4,71.9,2.4z M71.9,138.1c-36.5,0-66.1-29.6-66.1-66.1
	S35.3,5.9,71.9,5.9S138,35.5,138,72S108.4,138.1,71.9,138.1z"/>
<g>
	<path fill="#FFFFFF" stroke="#FFFFFF" stroke-width="2.0423" stroke-miterlimit="10" d="M39.9,49.9c-9.8,0-17.7,7.9-17.7,17.7v25.7
		h3.6v-15V67.6c0-7.8,6.3-14.1,14.1-14.1c7.8,0,14.1,6.3,14.1,14.1h3.6C57.7,57.8,49.7,49.9,39.9,49.9z"/>
	<path fill="#FFFFFF" stroke="#FFFFFF" stroke-width="2.0423" stroke-miterlimit="10" d="M117.9,50.7v15v10.8
		c0,7.8-6.3,14.1-14.1,14.1c-7.7,0-14-6.2-14.1-13.9c0-0.1,0-0.2,0-0.3V50.7h-3.6v15v10.8c0,7.8-6.3,14.1-14.1,14.1
		c-7.8,0-14.1-6.3-14.1-14.1h-3.6c0,9.8,7.9,17.7,17.8,17.7c7,0,13-4,15.9-9.9c2.9,5.9,8.9,9.9,15.9,9.9c9.8,0,17.7-7.9,17.7-17.7
		V50.7H117.9z"/>
</g>
</svg>
