<?xml version="1.0" encoding="utf-8"?>
<!-- Generator: Adobe Illustrator 18.1.0, SVG Export Plug-In . SVG Version: 6.00 Build 0)  -->
<!DOCTYPE svg PUBLIC "-//W3C//DTD SVG 1.1//EN" "http://www.w3.org/Graphics/SVG/1.1/DTD/svg11.dtd">
<svg version="1.1" id="Layer_1" xmlns="http://www.w3.org/2000/svg" xmlns:xlink="http://www.w3.org/1999/xlink" x="0px" y="0px"
	 viewBox="0 0 143.7 144" enable-background="new 0 0 143.7 144" xml:space="preserve">
<g>
	<path fill="#FFFFFF" d="M71.9,143.5c-39.4,0-71.5-32.1-71.5-71.5c0-39.4,32.1-71.5,71.5-71.5c39.4,0,71.5,32.1,71.5,71.5
		C143.4,111.4,111.3,143.5,71.9,143.5z M71.9,4.6C34.7,4.6,4.4,34.8,4.4,72c0,37.2,30.2,67.4,67.4,67.4c37.2,0,67.4-30.2,67.4-67.4
		C139.3,34.8,109,4.6,71.9,4.6z"/>
	<path fill="#FFFFFF" d="M106.7,53.8c-2.6,1.1-5.3,1.9-8.2,2.2c2.9-1.8,5.2-4.6,6.3-7.9c-2.8,1.6-5.8,2.8-9.1,3.5
		c-2.6-2.8-6.3-4.5-10.4-4.5c-7.9,0-14.3,6.4-14.3,14.3c0,1.1,0.1,2.2,0.4,3.3C59.5,64,49,58.4,42,49.7c-1.2,2.1-1.9,4.6-1.9,7.2
		c0,4.9,2.5,9.3,6.4,11.9c-2.3-0.1-4.5-0.7-6.5-1.8v0.2c0,6.9,4.9,12.7,11.5,14c-1.2,0.3-2.5,0.5-3.8,0.5c-0.9,0-1.8-0.1-2.7-0.3
		c1.8,5.7,7.1,9.8,13.3,9.9c-4.9,3.8-11,6.1-17.7,6.1c-1.2,0-2.3-0.1-3.4-0.2c6.3,4,13.8,6.4,21.9,6.4c26.3,0,40.6-21.7,40.6-40.6
		c0-0.6,0-1.2,0-1.8C102.4,59.2,104.8,56.7,106.7,53.8"/>
</g>
</svg>
